<?xml version="1.0" encoding="utf-8" standalone="no"?>
<!DOCTYPE svg PUBLIC "-//W3C//DTD SVG 1.1//EN"
  "http://www.w3.org/Graphics/SVG/1.1/DTD/svg11.dtd">
<svg xmlns:xlink="http://www.w3.org/1999/xlink" width="739.8pt" height="302.688pt" viewBox="0 0 739.8 302.688" xmlns="http://www.w3.org/2000/svg" version="1.1">
 <metadata>
  <rdf:RDF xmlns:dc="http://purl.org/dc/elements/1.1/" xmlns:cc="http://creativecommons.org/ns#" xmlns:rdf="http://www.w3.org/1999/02/22-rdf-syntax-ns#">
   <cc:Work>
    <dc:type rdf:resource="http://purl.org/dc/dcmitype/StillImage"/>
    <dc:date>2026-04-24T16:43:09.545420</dc:date>
    <dc:format>image/svg+xml</dc:format>
    <dc:creator>
     <cc:Agent>
      <dc:title>Matplotlib v3.10.8, https://matplotlib.org/</dc:title>
     </cc:Agent>
    </dc:creator>
   </cc:Work>
  </rdf:RDF>
 </metadata>
 <defs>
  <style type="text/css">*{stroke-linejoin: round; stroke-linecap: butt}</style>
 </defs>
 <g id="figure_1">
  <g id="patch_1">
   <path d="M 0 302.688 
L 739.8 302.688 
L 739.8 0 
L 0 0 
z
" style="fill: #ffffff"/>
  </g>
  <g id="axes_1">
   <g id="patch_2">
    <path d="M 36.216 185.93856 
L 108.756 185.93856 
Q 130.518 185.93856 130.518 177.28992 
L 130.518 131.16384 
Q 130.518 122.5152 108.756 122.5152 
L 36.216 122.5152 
Q 14.454 122.5152 14.454 131.16384 
L 14.454 177.28992 
Q 14.454 185.93856 36.216 185.93856 
z
" clip-path="url(#pa7c9bffdab)" style="fill: #c9d7e8; opacity: 0.14; stroke: #c9d7e8; stroke-width: 1.2; stroke-linejoin: miter"/>
   </g>
   <g id="patch_3">
    <path d="M 159.534 185.93856 
L 232.074 185.93856 
Q 253.836 185.93856 253.836 177.28992 
L 253.836 131.16384 
Q 253.836 122.5152 232.074 122.5152 
L 159.534 122.5152 
Q 137.772 122.5152 137.772 131.16384 
L 137.772 177.28992 
Q 137.772 185.93856 159.534 185.93856 
z
" clip-path="url(#pa7c9bffdab)" style="fill: #d6edeb; opacity: 0.14; stroke: #d6edeb; stroke-width: 1.2; stroke-linejoin: miter"/>
   </g>
   <g id="patch_4">
    <path d="M 290.106 185.93856 
L 369.9 185.93856 
Q 391.662 185.93856 391.662 177.28992 
L 391.662 131.16384 
Q 391.662 122.5152 369.9 122.5152 
L 290.106 122.5152 
Q 268.344 122.5152 268.344 131.16384 
L 268.344 177.28992 
Q 268.344 185.93856 290.106 185.93856 
z
" clip-path="url(#pa7c9bffdab)" style="fill: #b7d1f0; opacity: 0.14; stroke: #b7d1f0; stroke-width: 1.2; stroke-linejoin: miter"/>
   </g>
   <g id="patch_5">
    <path d="M 427.932 185.93856 
L 485.964 185.93856 
Q 507.726 185.93856 507.726 177.28992 
L 507.726 131.16384 
Q 507.726 122.5152 485.964 122.5152 
L 427.932 122.5152 
Q 406.17 122.5152 406.17 131.16384 
L 406.17 177.28992 
Q 406.17 185.93856 427.932 185.93856 
z
" clip-path="url(#pa7c9bffdab)" style="fill: #a7e1db; opacity: 0.14; stroke: #a7e1db; stroke-width: 1.2; stroke-linejoin: miter"/>
   </g>
   <g id="patch_6">
    <path d="M 551.25 136.9296 
L 631.044 136.9296 
Q 652.806 136.9296 652.806 128.28096 
L 652.806 90.80352 
Q 652.806 82.15488 631.044 82.15488 
L 551.25 82.15488 
Q 529.488 82.15488 529.488 90.80352 
L 529.488 128.28096 
Q 529.488 136.9296 551.25 136.9296 
z
" clip-path="url(#pa7c9bffdab)" style="fill: #bee8d8; opacity: 0.14; stroke: #bee8d8; stroke-width: 1.2; stroke-linejoin: miter"/>
   </g>
   <g id="patch_7">
    <path d="M 551.25 234.94752 
L 631.044 234.94752 
Q 652.806 234.94752 652.806 226.29888 
L 652.806 188.82144 
Q 652.806 180.1728 631.044 180.1728 
L 551.25 180.1728 
Q 529.488 180.1728 529.488 188.82144 
L 529.488 226.29888 
Q 529.488 234.94752 551.25 234.94752 
z
" clip-path="url(#pa7c9bffdab)" style="fill: #b7d1f0; opacity: 0.14; stroke: #b7d1f0; stroke-width: 1.2; stroke-linejoin: miter"/>
   </g>
   <g id="patch_8">
    <path d="M 118.006798 154.22688 
Q 134.141393 154.22688 148.710741 154.22688 
" clip-path="url(#pa7c9bffdab)" style="fill: none; stroke: #5b6575; stroke-width: 1.4; stroke-linecap: round"/>
    <path d="M 143.110741 151.42688 
L 148.710741 154.22688 
L 143.110741 157.02688 
z
" clip-path="url(#pa7c9bffdab)" style="fill: #5b6575; stroke: #5b6575; stroke-width: 1.4; stroke-linecap: round"/>
   </g>
   <g id="patch_9">
    <path d="M 241.32834 154.22688 
Q 261.090348 154.22688 279.287108 154.22688 
" clip-path="url(#pa7c9bffdab)" style="fill: none; stroke: #5b6575; stroke-width: 1.4; stroke-linecap: round"/>
    <path d="M 273.687108 151.42688 
L 279.287108 154.22688 
L 273.687108 157.02688 
z
" clip-path="url(#pa7c9bffdab)" style="fill: #5b6575; stroke: #5b6575; stroke-width: 1.4; stroke-linecap: round"/>
   </g>
   <g id="patch_10">
    <path d="M 379.15434 154.22688 
Q 398.916348 154.22688 417.113108 154.22688 
" clip-path="url(#pa7c9bffdab)" style="fill: none; stroke: #5b6575; stroke-width: 1.4; stroke-linecap: round"/>
    <path d="M 411.513108 151.42688 
L 417.113108 154.22688 
L 411.513108 157.02688 
z
" clip-path="url(#pa7c9bffdab)" style="fill: #5b6575; stroke: #5b6575; stroke-width: 1.4; stroke-linecap: round"/>
   </g>
   <g id="patch_11">
    <path d="M 494.913286 141.636627 
Q 518.605342 126.840556 540.969782 112.873602 
" clip-path="url(#pa7c9bffdab)" style="fill: none; stroke: #159a9c; stroke-width: 1.4; stroke-linecap: round"/>
    <path d="M 534.736788 113.465032 
L 540.969782 112.873602 
L 537.703129 118.214855 
z
" clip-path="url(#pa7c9bffdab)" style="fill: #159a9c; stroke: #159a9c; stroke-width: 1.4; stroke-linecap: round"/>
   </g>
   <g id="patch_12">
    <path d="M 494.739728 167.054324 
Q 518.605751 187.378936 541.280099 206.688703 
" clip-path="url(#pa7c9bffdab)" style="fill: none; stroke: #4c78a8; stroke-width: 1.4; stroke-linecap: round"/>
    <path d="M 538.832045 200.926149 
L 541.280099 206.688703 
L 535.201223 205.189614 
z
" clip-path="url(#pa7c9bffdab)" style="fill: #4c78a8; stroke: #4c78a8; stroke-width: 1.4; stroke-linecap: round"/>
   </g>
   <g id="patch_13">
    <path d="M 640.297012 110.98368 
Q 663.687644 110.98368 685.513029 110.98368 
" clip-path="url(#pa7c9bffdab)" style="fill: none; stroke: #159a9c; stroke-width: 1.4; stroke-linecap: round"/>
    <path d="M 679.913029 108.18368 
L 685.513029 110.98368 
L 679.913029 113.78368 
z
" clip-path="url(#pa7c9bffdab)" style="fill: #159a9c; stroke: #159a9c; stroke-width: 1.4; stroke-linecap: round"/>
   </g>
   <g id="patch_14">
    <path d="M 640.297012 209.0016 
Q 663.687644 209.0016 685.513029 209.0016 
" clip-path="url(#pa7c9bffdab)" style="fill: none; stroke: #4c78a8; stroke-width: 1.4; stroke-linecap: round"/>
    <path d="M 679.913029 206.2016 
L 685.513029 209.0016 
L 679.913029 211.8016 
z
" clip-path="url(#pa7c9bffdab)" style="fill: #4c78a8; stroke: #4c78a8; stroke-width: 1.4; stroke-linecap: round"/>
   </g>
   <g id="text_1">
    <!-- Supervised DAE Pipeline -->
    <g style="fill: #122033" transform="translate(21.708 21.6144) scale(0.18 -0.18)">
     <defs>
      <path id="DejaVuSans-Bold-53" d="M 3834 4519 
L 3834 3531 
Q 3450 3703 3084 3790 
Q 2719 3878 2394 3878 
Q 1963 3878 1756 3759 
Q 1550 3641 1550 3391 
Q 1550 3203 1689 3098 
Q 1828 2994 2194 2919 
L 2706 2816 
Q 3484 2659 3812 2340 
Q 4141 2022 4141 1434 
Q 4141 663 3683 286 
Q 3225 -91 2284 -91 
Q 1841 -91 1394 -6 
Q 947 78 500 244 
L 500 1259 
Q 947 1022 1364 901 
Q 1781 781 2169 781 
Q 2563 781 2772 912 
Q 2981 1044 2981 1288 
Q 2981 1506 2839 1625 
Q 2697 1744 2272 1838 
L 1806 1941 
Q 1106 2091 782 2419 
Q 459 2747 459 3303 
Q 459 4000 909 4375 
Q 1359 4750 2203 4750 
Q 2588 4750 2994 4692 
Q 3400 4634 3834 4519 
z
" transform="scale(0.015625)"/>
      <path id="DejaVuSans-Bold-75" d="M 500 1363 
L 500 3500 
L 1625 3500 
L 1625 3150 
Q 1625 2866 1622 2436 
Q 1619 2006 1619 1863 
Q 1619 1441 1641 1255 
Q 1663 1069 1716 984 
Q 1784 875 1895 815 
Q 2006 756 2150 756 
Q 2500 756 2700 1025 
Q 2900 1294 2900 1772 
L 2900 3500 
L 4019 3500 
L 4019 0 
L 2900 0 
L 2900 506 
Q 2647 200 2364 54 
Q 2081 -91 1741 -91 
Q 1134 -91 817 281 
Q 500 653 500 1363 
z
" transform="scale(0.015625)"/>
      <path id="DejaVuSans-Bold-70" d="M 1656 506 
L 1656 -1331 
L 538 -1331 
L 538 3500 
L 1656 3500 
L 1656 2988 
Q 1888 3294 2169 3439 
Q 2450 3584 2816 3584 
Q 3463 3584 3878 3070 
Q 4294 2556 4294 1747 
Q 4294 938 3878 423 
Q 3463 -91 2816 -91 
Q 2450 -91 2169 54 
Q 1888 200 1656 506 
z
M 2400 2772 
Q 2041 2772 1848 2508 
Q 1656 2244 1656 1747 
Q 1656 1250 1848 986 
Q 2041 722 2400 722 
Q 2759 722 2948 984 
Q 3138 1247 3138 1747 
Q 3138 2247 2948 2509 
Q 2759 2772 2400 2772 
z
" transform="scale(0.015625)"/>
      <path id="DejaVuSans-Bold-65" d="M 4031 1759 
L 4031 1441 
L 1416 1441 
Q 1456 1047 1700 850 
Q 1944 653 2381 653 
Q 2734 653 3104 758 
Q 3475 863 3866 1075 
L 3866 213 
Q 3469 63 3072 -14 
Q 2675 -91 2278 -91 
Q 1328 -91 801 392 
Q 275 875 275 1747 
Q 275 2603 792 3093 
Q 1309 3584 2216 3584 
Q 3041 3584 3536 3087 
Q 4031 2591 4031 1759 
z
M 2881 2131 
Q 2881 2450 2695 2645 
Q 2509 2841 2209 2841 
Q 1884 2841 1681 2658 
Q 1478 2475 1428 2131 
L 2881 2131 
z
" transform="scale(0.015625)"/>
      <path id="DejaVuSans-Bold-72" d="M 3138 2547 
Q 2991 2616 2845 2648 
Q 2700 2681 2553 2681 
Q 2122 2681 1889 2404 
Q 1656 2128 1656 1613 
L 1656 0 
L 538 0 
L 538 3500 
L 1656 3500 
L 1656 2925 
Q 1872 3269 2151 3426 
Q 2431 3584 2822 3584 
Q 2878 3584 2943 3579 
Q 3009 3575 3134 3559 
L 3138 2547 
z
" transform="scale(0.015625)"/>
      <path id="DejaVuSans-Bold-76" d="M 97 3500 
L 1216 3500 
L 2088 1081 
L 2956 3500 
L 4078 3500 
L 2700 0 
L 1472 0 
L 97 3500 
z
" transform="scale(0.015625)"/>
      <path id="DejaVuSans-Bold-69" d="M 538 3500 
L 1656 3500 
L 1656 0 
L 538 0 
L 538 3500 
z
M 538 4863 
L 1656 4863 
L 1656 3950 
L 538 3950 
L 538 4863 
z
" transform="scale(0.015625)"/>
      <path id="DejaVuSans-Bold-73" d="M 3272 3391 
L 3272 2541 
Q 2913 2691 2578 2766 
Q 2244 2841 1947 2841 
Q 1628 2841 1473 2761 
Q 1319 2681 1319 2516 
Q 1319 2381 1436 2309 
Q 1553 2238 1856 2203 
L 2053 2175 
Q 2913 2066 3209 1816 
Q 3506 1566 3506 1031 
Q 3506 472 3093 190 
Q 2681 -91 1863 -91 
Q 1516 -91 1145 -36 
Q 775 19 384 128 
L 384 978 
Q 719 816 1070 734 
Q 1422 653 1784 653 
Q 2113 653 2278 743 
Q 2444 834 2444 1013 
Q 2444 1163 2330 1236 
Q 2216 1309 1875 1350 
L 1678 1375 
Q 931 1469 631 1722 
Q 331 1975 331 2491 
Q 331 3047 712 3315 
Q 1094 3584 1881 3584 
Q 2191 3584 2531 3537 
Q 2872 3491 3272 3391 
z
" transform="scale(0.015625)"/>
      <path id="DejaVuSans-Bold-64" d="M 2919 2988 
L 2919 4863 
L 4044 4863 
L 4044 0 
L 2919 0 
L 2919 506 
Q 2688 197 2409 53 
Q 2131 -91 1766 -91 
Q 1119 -91 703 423 
Q 288 938 288 1747 
Q 288 2556 703 3070 
Q 1119 3584 1766 3584 
Q 2128 3584 2408 3439 
Q 2688 3294 2919 2988 
z
M 2181 722 
Q 2541 722 2730 984 
Q 2919 1247 2919 1747 
Q 2919 2247 2730 2509 
Q 2541 2772 2181 2772 
Q 1825 2772 1636 2509 
Q 1447 2247 1447 1747 
Q 1447 1247 1636 984 
Q 1825 722 2181 722 
z
" transform="scale(0.015625)"/>
      <path id="DejaVuSans-Bold-20" transform="scale(0.015625)"/>
      <path id="DejaVuSans-Bold-44" d="M 1791 3756 
L 1791 909 
L 2222 909 
Q 2959 909 3348 1275 
Q 3738 1641 3738 2338 
Q 3738 3031 3350 3393 
Q 2963 3756 2222 3756 
L 1791 3756 
z
M 588 4666 
L 1856 4666 
Q 2919 4666 3439 4514 
Q 3959 4363 4331 4000 
Q 4659 3684 4818 3271 
Q 4978 2859 4978 2338 
Q 4978 1809 4818 1395 
Q 4659 981 4331 666 
Q 3956 303 3431 151 
Q 2906 0 1856 0 
L 588 0 
L 588 4666 
z
" transform="scale(0.015625)"/>
      <path id="DejaVuSans-Bold-41" d="M 3419 850 
L 1538 850 
L 1241 0 
L 31 0 
L 1759 4666 
L 3194 4666 
L 4922 0 
L 3713 0 
L 3419 850 
z
M 1838 1716 
L 3116 1716 
L 2478 3572 
L 1838 1716 
z
" transform="scale(0.015625)"/>
      <path id="DejaVuSans-Bold-45" d="M 588 4666 
L 3834 4666 
L 3834 3756 
L 1791 3756 
L 1791 2888 
L 3713 2888 
L 3713 1978 
L 1791 1978 
L 1791 909 
L 3903 909 
L 3903 0 
L 588 0 
L 588 4666 
z
" transform="scale(0.015625)"/>
      <path id="DejaVuSans-Bold-50" d="M 588 4666 
L 2584 4666 
Q 3475 4666 3951 4270 
Q 4428 3875 4428 3144 
Q 4428 2409 3951 2014 
Q 3475 1619 2584 1619 
L 1791 1619 
L 1791 0 
L 588 0 
L 588 4666 
z
M 1791 3794 
L 1791 2491 
L 2456 2491 
Q 2806 2491 2997 2661 
Q 3188 2831 3188 3144 
Q 3188 3456 2997 3625 
Q 2806 3794 2456 3794 
L 1791 3794 
z
" transform="scale(0.015625)"/>
      <path id="DejaVuSans-Bold-6c" d="M 538 4863 
L 1656 4863 
L 1656 0 
L 538 0 
L 538 4863 
z
" transform="scale(0.015625)"/>
      <path id="DejaVuSans-Bold-6e" d="M 4056 2131 
L 4056 0 
L 2931 0 
L 2931 347 
L 2931 1631 
Q 2931 2084 2911 2256 
Q 2891 2428 2841 2509 
Q 2775 2619 2662 2680 
Q 2550 2741 2406 2741 
Q 2056 2741 1856 2470 
Q 1656 2200 1656 1722 
L 1656 0 
L 538 0 
L 538 3500 
L 1656 3500 
L 1656 2988 
Q 1909 3294 2193 3439 
Q 2478 3584 2822 3584 
Q 3428 3584 3742 3212 
Q 4056 2841 4056 2131 
z
" transform="scale(0.015625)"/>
     </defs>
     <use xlink:href="#DejaVuSans-Bold-53"/>
     <use xlink:href="#DejaVuSans-Bold-75" transform="translate(72.021484 0)"/>
     <use xlink:href="#DejaVuSans-Bold-70" transform="translate(143.212891 0)"/>
     <use xlink:href="#DejaVuSans-Bold-65" transform="translate(214.794922 0)"/>
     <use xlink:href="#DejaVuSans-Bold-72" transform="translate(282.617188 0)"/>
     <use xlink:href="#DejaVuSans-Bold-76" transform="translate(331.933594 0)"/>
     <use xlink:href="#DejaVuSans-Bold-69" transform="translate(397.119141 0)"/>
     <use xlink:href="#DejaVuSans-Bold-73" transform="translate(431.396484 0)"/>
     <use xlink:href="#DejaVuSans-Bold-65" transform="translate(490.917969 0)"/>
     <use xlink:href="#DejaVuSans-Bold-64" transform="translate(558.740234 0)"/>
     <use xlink:href="#DejaVuSans-Bold-20" transform="translate(630.322266 0)"/>
     <use xlink:href="#DejaVuSans-Bold-44" transform="translate(665.136719 0)"/>
     <use xlink:href="#DejaVuSans-Bold-41" transform="translate(748.144531 0)"/>
     <use xlink:href="#DejaVuSans-Bold-45" transform="translate(825.537109 0)"/>
     <use xlink:href="#DejaVuSans-Bold-20" transform="translate(893.847656 0)"/>
     <use xlink:href="#DejaVuSans-Bold-50" transform="translate(928.662109 0)"/>
     <use xlink:href="#DejaVuSans-Bold-69" transform="translate(1001.953125 0)"/>
     <use xlink:href="#DejaVuSans-Bold-70" transform="translate(1036.230469 0)"/>
     <use xlink:href="#DejaVuSans-Bold-65" transform="translate(1107.8125 0)"/>
     <use xlink:href="#DejaVuSans-Bold-6c" transform="translate(1175.634766 0)"/>
     <use xlink:href="#DejaVuSans-Bold-69" transform="translate(1209.912109 0)"/>
     <use xlink:href="#DejaVuSans-Bold-6e" transform="translate(1244.189453 0)"/>
     <use xlink:href="#DejaVuSans-Bold-65" transform="translate(1315.380859 0)"/>
    </g>
   </g>
   <g id="text_2">
    <!-- Single-cell input is denoised, encoded into latent z, then used for reconstruction and classification. -->
    <g style="fill: #5b6575" transform="translate(21.708 38.91168) scale(0.11 -0.11)">
     <defs>
      <path id="DejaVuSans-53" d="M 3425 4513 
L 3425 3897 
Q 3066 4069 2747 4153 
Q 2428 4238 2131 4238 
Q 1616 4238 1336 4038 
Q 1056 3838 1056 3469 
Q 1056 3159 1242 3001 
Q 1428 2844 1947 2747 
L 2328 2669 
Q 3034 2534 3370 2195 
Q 3706 1856 3706 1288 
Q 3706 609 3251 259 
Q 2797 -91 1919 -91 
Q 1588 -91 1214 -16 
Q 841 59 441 206 
L 441 856 
Q 825 641 1194 531 
Q 1563 422 1919 422 
Q 2459 422 2753 634 
Q 3047 847 3047 1241 
Q 3047 1584 2836 1778 
Q 2625 1972 2144 2069 
L 1759 2144 
Q 1053 2284 737 2584 
Q 422 2884 422 3419 
Q 422 4038 858 4394 
Q 1294 4750 2059 4750 
Q 2388 4750 2728 4690 
Q 3069 4631 3425 4513 
z
" transform="scale(0.015625)"/>
      <path id="DejaVuSans-69" d="M 603 3500 
L 1178 3500 
L 1178 0 
L 603 0 
L 603 3500 
z
M 603 4863 
L 1178 4863 
L 1178 4134 
L 603 4134 
L 603 4863 
z
" transform="scale(0.015625)"/>
      <path id="DejaVuSans-6e" d="M 3513 2113 
L 3513 0 
L 2938 0 
L 2938 2094 
Q 2938 2591 2744 2837 
Q 2550 3084 2163 3084 
Q 1697 3084 1428 2787 
Q 1159 2491 1159 1978 
L 1159 0 
L 581 0 
L 581 3500 
L 1159 3500 
L 1159 2956 
Q 1366 3272 1645 3428 
Q 1925 3584 2291 3584 
Q 2894 3584 3203 3211 
Q 3513 2838 3513 2113 
z
" transform="scale(0.015625)"/>
      <path id="DejaVuSans-67" d="M 2906 1791 
Q 2906 2416 2648 2759 
Q 2391 3103 1925 3103 
Q 1463 3103 1205 2759 
Q 947 2416 947 1791 
Q 947 1169 1205 825 
Q 1463 481 1925 481 
Q 2391 481 2648 825 
Q 2906 1169 2906 1791 
z
M 3481 434 
Q 3481 -459 3084 -895 
Q 2688 -1331 1869 -1331 
Q 1566 -1331 1297 -1286 
Q 1028 -1241 775 -1147 
L 775 -588 
Q 1028 -725 1275 -790 
Q 1522 -856 1778 -856 
Q 2344 -856 2625 -561 
Q 2906 -266 2906 331 
L 2906 616 
Q 2728 306 2450 153 
Q 2172 0 1784 0 
Q 1141 0 747 490 
Q 353 981 353 1791 
Q 353 2603 747 3093 
Q 1141 3584 1784 3584 
Q 2172 3584 2450 3431 
Q 2728 3278 2906 2969 
L 2906 3500 
L 3481 3500 
L 3481 434 
z
" transform="scale(0.015625)"/>
      <path id="DejaVuSans-6c" d="M 603 4863 
L 1178 4863 
L 1178 0 
L 603 0 
L 603 4863 
z
" transform="scale(0.015625)"/>
      <path id="DejaVuSans-65" d="M 3597 1894 
L 3597 1613 
L 953 1613 
Q 991 1019 1311 708 
Q 1631 397 2203 397 
Q 2534 397 2845 478 
Q 3156 559 3463 722 
L 3463 178 
Q 3153 47 2828 -22 
Q 2503 -91 2169 -91 
Q 1331 -91 842 396 
Q 353 884 353 1716 
Q 353 2575 817 3079 
Q 1281 3584 2069 3584 
Q 2775 3584 3186 3129 
Q 3597 2675 3597 1894 
z
M 3022 2063 
Q 3016 2534 2758 2815 
Q 2500 3097 2075 3097 
Q 1594 3097 1305 2825 
Q 1016 2553 972 2059 
L 3022 2063 
z
" transform="scale(0.015625)"/>
      <path id="DejaVuSans-2d" d="M 313 2009 
L 1997 2009 
L 1997 1497 
L 313 1497 
L 313 2009 
z
" transform="scale(0.015625)"/>
      <path id="DejaVuSans-63" d="M 3122 3366 
L 3122 2828 
Q 2878 2963 2633 3030 
Q 2388 3097 2138 3097 
Q 1578 3097 1268 2742 
Q 959 2388 959 1747 
Q 959 1106 1268 751 
Q 1578 397 2138 397 
Q 2388 397 2633 464 
Q 2878 531 3122 666 
L 3122 134 
Q 2881 22 2623 -34 
Q 2366 -91 2075 -91 
Q 1284 -91 818 406 
Q 353 903 353 1747 
Q 353 2603 823 3093 
Q 1294 3584 2113 3584 
Q 2378 3584 2631 3529 
Q 2884 3475 3122 3366 
z
" transform="scale(0.015625)"/>
      <path id="DejaVuSans-20" transform="scale(0.015625)"/>
      <path id="DejaVuSans-70" d="M 1159 525 
L 1159 -1331 
L 581 -1331 
L 581 3500 
L 1159 3500 
L 1159 2969 
Q 1341 3281 1617 3432 
Q 1894 3584 2278 3584 
Q 2916 3584 3314 3078 
Q 3713 2572 3713 1747 
Q 3713 922 3314 415 
Q 2916 -91 2278 -91 
Q 1894 -91 1617 61 
Q 1341 213 1159 525 
z
M 3116 1747 
Q 3116 2381 2855 2742 
Q 2594 3103 2138 3103 
Q 1681 3103 1420 2742 
Q 1159 2381 1159 1747 
Q 1159 1113 1420 752 
Q 1681 391 2138 391 
Q 2594 391 2855 752 
Q 3116 1113 3116 1747 
z
" transform="scale(0.015625)"/>
      <path id="DejaVuSans-75" d="M 544 1381 
L 544 3500 
L 1119 3500 
L 1119 1403 
Q 1119 906 1312 657 
Q 1506 409 1894 409 
Q 2359 409 2629 706 
Q 2900 1003 2900 1516 
L 2900 3500 
L 3475 3500 
L 3475 0 
L 2900 0 
L 2900 538 
Q 2691 219 2414 64 
Q 2138 -91 1772 -91 
Q 1169 -91 856 284 
Q 544 659 544 1381 
z
M 1991 3584 
L 1991 3584 
z
" transform="scale(0.015625)"/>
      <path id="DejaVuSans-74" d="M 1172 4494 
L 1172 3500 
L 2356 3500 
L 2356 3053 
L 1172 3053 
L 1172 1153 
Q 1172 725 1289 603 
Q 1406 481 1766 481 
L 2356 481 
L 2356 0 
L 1766 0 
Q 1100 0 847 248 
Q 594 497 594 1153 
L 594 3053 
L 172 3053 
L 172 3500 
L 594 3500 
L 594 4494 
L 1172 4494 
z
" transform="scale(0.015625)"/>
      <path id="DejaVuSans-73" d="M 2834 3397 
L 2834 2853 
Q 2591 2978 2328 3040 
Q 2066 3103 1784 3103 
Q 1356 3103 1142 2972 
Q 928 2841 928 2578 
Q 928 2378 1081 2264 
Q 1234 2150 1697 2047 
L 1894 2003 
Q 2506 1872 2764 1633 
Q 3022 1394 3022 966 
Q 3022 478 2636 193 
Q 2250 -91 1575 -91 
Q 1294 -91 989 -36 
Q 684 19 347 128 
L 347 722 
Q 666 556 975 473 
Q 1284 391 1588 391 
Q 1994 391 2212 530 
Q 2431 669 2431 922 
Q 2431 1156 2273 1281 
Q 2116 1406 1581 1522 
L 1381 1569 
Q 847 1681 609 1914 
Q 372 2147 372 2553 
Q 372 3047 722 3315 
Q 1072 3584 1716 3584 
Q 2034 3584 2315 3537 
Q 2597 3491 2834 3397 
z
" transform="scale(0.015625)"/>
      <path id="DejaVuSans-64" d="M 2906 2969 
L 2906 4863 
L 3481 4863 
L 3481 0 
L 2906 0 
L 2906 525 
Q 2725 213 2448 61 
Q 2172 -91 1784 -91 
Q 1150 -91 751 415 
Q 353 922 353 1747 
Q 353 2572 751 3078 
Q 1150 3584 1784 3584 
Q 2172 3584 2448 3432 
Q 2725 3281 2906 2969 
z
M 947 1747 
Q 947 1113 1208 752 
Q 1469 391 1925 391 
Q 2381 391 2643 752 
Q 2906 1113 2906 1747 
Q 2906 2381 2643 2742 
Q 2381 3103 1925 3103 
Q 1469 3103 1208 2742 
Q 947 2381 947 1747 
z
" transform="scale(0.015625)"/>
      <path id="DejaVuSans-6f" d="M 1959 3097 
Q 1497 3097 1228 2736 
Q 959 2375 959 1747 
Q 959 1119 1226 758 
Q 1494 397 1959 397 
Q 2419 397 2687 759 
Q 2956 1122 2956 1747 
Q 2956 2369 2687 2733 
Q 2419 3097 1959 3097 
z
M 1959 3584 
Q 2709 3584 3137 3096 
Q 3566 2609 3566 1747 
Q 3566 888 3137 398 
Q 2709 -91 1959 -91 
Q 1206 -91 779 398 
Q 353 888 353 1747 
Q 353 2609 779 3096 
Q 1206 3584 1959 3584 
z
" transform="scale(0.015625)"/>
      <path id="DejaVuSans-2c" d="M 750 794 
L 1409 794 
L 1409 256 
L 897 -744 
L 494 -744 
L 750 256 
L 750 794 
z
" transform="scale(0.015625)"/>
      <path id="DejaVuSans-61" d="M 2194 1759 
Q 1497 1759 1228 1600 
Q 959 1441 959 1056 
Q 959 750 1161 570 
Q 1363 391 1709 391 
Q 2188 391 2477 730 
Q 2766 1069 2766 1631 
L 2766 1759 
L 2194 1759 
z
M 3341 1997 
L 3341 0 
L 2766 0 
L 2766 531 
Q 2569 213 2275 61 
Q 1981 -91 1556 -91 
Q 1019 -91 701 211 
Q 384 513 384 1019 
Q 384 1609 779 1909 
Q 1175 2209 1959 2209 
L 2766 2209 
L 2766 2266 
Q 2766 2663 2505 2880 
Q 2244 3097 1772 3097 
Q 1472 3097 1187 3025 
Q 903 2953 641 2809 
L 641 3341 
Q 956 3463 1253 3523 
Q 1550 3584 1831 3584 
Q 2591 3584 2966 3190 
Q 3341 2797 3341 1997 
z
" transform="scale(0.015625)"/>
      <path id="DejaVuSans-7a" d="M 353 3500 
L 3084 3500 
L 3084 2975 
L 922 459 
L 3084 459 
L 3084 0 
L 275 0 
L 275 525 
L 2438 3041 
L 353 3041 
L 353 3500 
z
" transform="scale(0.015625)"/>
      <path id="DejaVuSans-68" d="M 3513 2113 
L 3513 0 
L 2938 0 
L 2938 2094 
Q 2938 2591 2744 2837 
Q 2550 3084 2163 3084 
Q 1697 3084 1428 2787 
Q 1159 2491 1159 1978 
L 1159 0 
L 581 0 
L 581 4863 
L 1159 4863 
L 1159 2956 
Q 1366 3272 1645 3428 
Q 1925 3584 2291 3584 
Q 2894 3584 3203 3211 
Q 3513 2838 3513 2113 
z
" transform="scale(0.015625)"/>
      <path id="DejaVuSans-66" d="M 2375 4863 
L 2375 4384 
L 1825 4384 
Q 1516 4384 1395 4259 
Q 1275 4134 1275 3809 
L 1275 3500 
L 2222 3500 
L 2222 3053 
L 1275 3053 
L 1275 0 
L 697 0 
L 697 3053 
L 147 3053 
L 147 3500 
L 697 3500 
L 697 3744 
Q 697 4328 969 4595 
Q 1241 4863 1831 4863 
L 2375 4863 
z
" transform="scale(0.015625)"/>
      <path id="DejaVuSans-72" d="M 2631 2963 
Q 2534 3019 2420 3045 
Q 2306 3072 2169 3072 
Q 1681 3072 1420 2755 
Q 1159 2438 1159 1844 
L 1159 0 
L 581 0 
L 581 3500 
L 1159 3500 
L 1159 2956 
Q 1341 3275 1631 3429 
Q 1922 3584 2338 3584 
Q 2397 3584 2469 3576 
Q 2541 3569 2628 3553 
L 2631 2963 
z
" transform="scale(0.015625)"/>
      <path id="DejaVuSans-2e" d="M 684 794 
L 1344 794 
L 1344 0 
L 684 0 
L 684 794 
z
" transform="scale(0.015625)"/>
     </defs>
     <use xlink:href="#DejaVuSans-53"/>
     <use xlink:href="#DejaVuSans-69" transform="translate(63.476562 0)"/>
     <use xlink:href="#DejaVuSans-6e" transform="translate(91.259766 0)"/>
     <use xlink:href="#DejaVuSans-67" transform="translate(154.638672 0)"/>
     <use xlink:href="#DejaVuSans-6c" transform="translate(218.115234 0)"/>
     <use xlink:href="#DejaVuSans-65" transform="translate(245.898438 0)"/>
     <use xlink:href="#DejaVuSans-2d" transform="translate(307.421875 0)"/>
     <use xlink:href="#DejaVuSans-63" transform="translate(343.505859 0)"/>
     <use xlink:href="#DejaVuSans-65" transform="translate(398.486328 0)"/>
     <use xlink:href="#DejaVuSans-6c" transform="translate(460.009766 0)"/>
     <use xlink:href="#DejaVuSans-6c" transform="translate(487.792969 0)"/>
     <use xlink:href="#DejaVuSans-20" transform="translate(515.576172 0)"/>
     <use xlink:href="#DejaVuSans-69" transform="translate(547.363281 0)"/>
     <use xlink:href="#DejaVuSans-6e" transform="translate(575.146484 0)"/>
     <use xlink:href="#DejaVuSans-70" transform="translate(638.525391 0)"/>
     <use xlink:href="#DejaVuSans-75" transform="translate(702.001953 0)"/>
     <use xlink:href="#DejaVuSans-74" transform="translate(765.380859 0)"/>
     <use xlink:href="#DejaVuSans-20" transform="translate(804.589844 0)"/>
     <use xlink:href="#DejaVuSans-69" transform="translate(836.376953 0)"/>
     <use xlink:href="#DejaVuSans-73" transform="translate(864.160156 0)"/>
     <use xlink:href="#DejaVuSans-20" transform="translate(916.259766 0)"/>
     <use xlink:href="#DejaVuSans-64" transform="translate(948.046875 0)"/>
     <use xlink:href="#DejaVuSans-65" transform="translate(1011.523438 0)"/>
     <use xlink:href="#DejaVuSans-6e" transform="translate(1073.046875 0)"/>
     <use xlink:href="#DejaVuSans-6f" transform="translate(1136.425781 0)"/>
     <use xlink:href="#DejaVuSans-69" transform="translate(1197.607422 0)"/>
     <use xlink:href="#DejaVuSans-73" transform="translate(1225.390625 0)"/>
     <use xlink:href="#DejaVuSans-65" transform="translate(1277.490234 0)"/>
     <use xlink:href="#DejaVuSans-64" transform="translate(1339.013672 0)"/>
     <use xlink:href="#DejaVuSans-2c" transform="translate(1402.490234 0)"/>
     <use xlink:href="#DejaVuSans-20" transform="translate(1434.277344 0)"/>
     <use xlink:href="#DejaVuSans-65" transform="translate(1466.064453 0)"/>
     <use xlink:href="#DejaVuSans-6e" transform="translate(1527.587891 0)"/>
     <use xlink:href="#DejaVuSans-63" transform="translate(1590.966797 0)"/>
     <use xlink:href="#DejaVuSans-6f" transform="translate(1645.947266 0)"/>
     <use xlink:href="#DejaVuSans-64" transform="translate(1707.128906 0)"/>
     <use xlink:href="#DejaVuSans-65" transform="translate(1770.605469 0)"/>
     <use xlink:href="#DejaVuSans-64" transform="translate(1832.128906 0)"/>
     <use xlink:href="#DejaVuSans-20" transform="translate(1895.605469 0)"/>
     <use xlink:href="#DejaVuSans-69" transform="translate(1927.392578 0)"/>
     <use xlink:href="#DejaVuSans-6e" transform="translate(1955.175781 0)"/>
     <use xlink:href="#DejaVuSans-74" transform="translate(2018.554688 0)"/>
     <use xlink:href="#DejaVuSans-6f" transform="translate(2057.763672 0)"/>
     <use xlink:href="#DejaVuSans-20" transform="translate(2118.945312 0)"/>
     <use xlink:href="#DejaVuSans-6c" transform="translate(2150.732422 0)"/>
     <use xlink:href="#DejaVuSans-61" transform="translate(2178.515625 0)"/>
     <use xlink:href="#DejaVuSans-74" transform="translate(2239.794922 0)"/>
     <use xlink:href="#DejaVuSans-65" transform="translate(2279.003906 0)"/>
     <use xlink:href="#DejaVuSans-6e" transform="translate(2340.527344 0)"/>
     <use xlink:href="#DejaVuSans-74" transform="translate(2403.90625 0)"/>
     <use xlink:href="#DejaVuSans-20" transform="translate(2443.115234 0)"/>
     <use xlink:href="#DejaVuSans-7a" transform="translate(2474.902344 0)"/>
     <use xlink:href="#DejaVuSans-2c" transform="translate(2527.392578 0)"/>
     <use xlink:href="#DejaVuSans-20" transform="translate(2559.179688 0)"/>
     <use xlink:href="#DejaVuSans-74" transform="translate(2590.966797 0)"/>
     <use xlink:href="#DejaVuSans-68" transform="translate(2630.175781 0)"/>
     <use xlink:href="#DejaVuSans-65" transform="translate(2693.554688 0)"/>
     <use xlink:href="#DejaVuSans-6e" transform="translate(2755.078125 0)"/>
     <use xlink:href="#DejaVuSans-20" transform="translate(2818.457031 0)"/>
     <use xlink:href="#DejaVuSans-75" transform="translate(2850.244141 0)"/>
     <use xlink:href="#DejaVuSans-73" transform="translate(2913.623047 0)"/>
     <use xlink:href="#DejaVuSans-65" transform="translate(2965.722656 0)"/>
     <use xlink:href="#DejaVuSans-64" transform="translate(3027.246094 0)"/>
     <use xlink:href="#DejaVuSans-20" transform="translate(3090.722656 0)"/>
     <use xlink:href="#DejaVuSans-66" transform="translate(3122.509766 0)"/>
     <use xlink:href="#DejaVuSans-6f" transform="translate(3157.714844 0)"/>
     <use xlink:href="#DejaVuSans-72" transform="translate(3218.896484 0)"/>
     <use xlink:href="#DejaVuSans-20" transform="translate(3260.009766 0)"/>
     <use xlink:href="#DejaVuSans-72" transform="translate(3291.796875 0)"/>
     <use xlink:href="#DejaVuSans-65" transform="translate(3330.660156 0)"/>
     <use xlink:href="#DejaVuSans-63" transform="translate(3392.183594 0)"/>
     <use xlink:href="#DejaVuSans-6f" transform="translate(3447.164062 0)"/>
     <use xlink:href="#DejaVuSans-6e" transform="translate(3508.345703 0)"/>
     <use xlink:href="#DejaVuSans-73" transform="translate(3571.724609 0)"/>
     <use xlink:href="#DejaVuSans-74" transform="translate(3623.824219 0)"/>
     <use xlink:href="#DejaVuSans-72" transform="translate(3663.033203 0)"/>
     <use xlink:href="#DejaVuSans-75" transform="translate(3704.146484 0)"/>
     <use xlink:href="#DejaVuSans-63" transform="translate(3767.525391 0)"/>
     <use xlink:href="#DejaVuSans-74" transform="translate(3822.505859 0)"/>
     <use xlink:href="#DejaVuSans-69" transform="translate(3861.714844 0)"/>
     <use xlink:href="#DejaVuSans-6f" transform="translate(3889.498047 0)"/>
     <use xlink:href="#DejaVuSans-6e" transform="translate(3950.679688 0)"/>
     <use xlink:href="#DejaVuSans-20" transform="translate(4014.058594 0)"/>
     <use xlink:href="#DejaVuSans-61" transform="translate(4045.845703 0)"/>
     <use xlink:href="#DejaVuSans-6e" transform="translate(4107.125 0)"/>
     <use xlink:href="#DejaVuSans-64" transform="translate(4170.503906 0)"/>
     <use xlink:href="#DejaVuSans-20" transform="translate(4233.980469 0)"/>
     <use xlink:href="#DejaVuSans-63" transform="translate(4265.767578 0)"/>
     <use xlink:href="#DejaVuSans-6c" transform="translate(4320.748047 0)"/>
     <use xlink:href="#DejaVuSans-61" transform="translate(4348.53125 0)"/>
     <use xlink:href="#DejaVuSans-73" transform="translate(4409.810547 0)"/>
     <use xlink:href="#DejaVuSans-73" transform="translate(4461.910156 0)"/>
     <use xlink:href="#DejaVuSans-69" transform="translate(4514.009766 0)"/>
     <use xlink:href="#DejaVuSans-66" transform="translate(4541.792969 0)"/>
     <use xlink:href="#DejaVuSans-69" transform="translate(4576.998047 0)"/>
     <use xlink:href="#DejaVuSans-63" transform="translate(4604.78125 0)"/>
     <use xlink:href="#DejaVuSans-61" transform="translate(4659.761719 0)"/>
     <use xlink:href="#DejaVuSans-74" transform="translate(4721.041016 0)"/>
     <use xlink:href="#DejaVuSans-69" transform="translate(4760.25 0)"/>
     <use xlink:href="#DejaVuSans-6f" transform="translate(4788.033203 0)"/>
     <use xlink:href="#DejaVuSans-6e" transform="translate(4849.214844 0)"/>
     <use xlink:href="#DejaVuSans-2e" transform="translate(4912.59375 0)"/>
    </g>
   </g>
   <g id="text_3">
    <!-- Gene -->
    <g style="fill: #122033" transform="translate(55.150688 150.819442) scale(0.12 -0.12)">
     <defs>
      <path id="DejaVuSans-Bold-47" d="M 4781 347 
Q 4331 128 3847 18 
Q 3363 -91 2847 -91 
Q 1681 -91 1000 561 
Q 319 1213 319 2328 
Q 319 3456 1012 4103 
Q 1706 4750 2913 4750 
Q 3378 4750 3804 4662 
Q 4231 4575 4609 4403 
L 4609 3438 
Q 4219 3659 3833 3768 
Q 3447 3878 3059 3878 
Q 2341 3878 1952 3476 
Q 1563 3075 1563 2328 
Q 1563 1588 1938 1184 
Q 2313 781 3003 781 
Q 3191 781 3352 804 
Q 3513 828 3641 878 
L 3641 1784 
L 2906 1784 
L 2906 2591 
L 4781 2591 
L 4781 347 
z
" transform="scale(0.015625)"/>
     </defs>
     <use xlink:href="#DejaVuSans-Bold-47"/>
     <use xlink:href="#DejaVuSans-Bold-65" transform="translate(82.080078 0)"/>
     <use xlink:href="#DejaVuSans-Bold-6e" transform="translate(149.902344 0)"/>
     <use xlink:href="#DejaVuSans-Bold-65" transform="translate(221.09375 0)"/>
    </g>
    <!-- expression -->
    <g style="fill: #122033" transform="translate(35.631 164.256817) scale(0.12 -0.12)">
     <defs>
      <path id="DejaVuSans-Bold-78" d="M 1422 1791 
L 159 3500 
L 1344 3500 
L 2059 2463 
L 2784 3500 
L 3969 3500 
L 2706 1797 
L 4031 0 
L 2847 0 
L 2059 1106 
L 1281 0 
L 97 0 
L 1422 1791 
z
" transform="scale(0.015625)"/>
      <path id="DejaVuSans-Bold-6f" d="M 2203 2784 
Q 1831 2784 1636 2517 
Q 1441 2250 1441 1747 
Q 1441 1244 1636 976 
Q 1831 709 2203 709 
Q 2569 709 2762 976 
Q 2956 1244 2956 1747 
Q 2956 2250 2762 2517 
Q 2569 2784 2203 2784 
z
M 2203 3584 
Q 3106 3584 3614 3096 
Q 4122 2609 4122 1747 
Q 4122 884 3614 396 
Q 3106 -91 2203 -91 
Q 1297 -91 786 396 
Q 275 884 275 1747 
Q 275 2609 786 3096 
Q 1297 3584 2203 3584 
z
" transform="scale(0.015625)"/>
     </defs>
     <use xlink:href="#DejaVuSans-Bold-65"/>
     <use xlink:href="#DejaVuSans-Bold-78" transform="translate(67.822266 0)"/>
     <use xlink:href="#DejaVuSans-Bold-70" transform="translate(132.324219 0)"/>
     <use xlink:href="#DejaVuSans-Bold-72" transform="translate(203.90625 0)"/>
     <use xlink:href="#DejaVuSans-Bold-65" transform="translate(253.222656 0)"/>
     <use xlink:href="#DejaVuSans-Bold-73" transform="translate(321.044922 0)"/>
     <use xlink:href="#DejaVuSans-Bold-73" transform="translate(380.566406 0)"/>
     <use xlink:href="#DejaVuSans-Bold-69" transform="translate(440.087891 0)"/>
     <use xlink:href="#DejaVuSans-Bold-6f" transform="translate(474.365234 0)"/>
     <use xlink:href="#DejaVuSans-Bold-6e" transform="translate(543.066406 0)"/>
    </g>
   </g>
   <g id="text_4">
    <!-- Dropout -->
    <g style="fill: #122033" transform="translate(168.186188 150.819442) scale(0.12 -0.12)">
     <defs>
      <path id="DejaVuSans-Bold-74" d="M 1759 4494 
L 1759 3500 
L 2913 3500 
L 2913 2700 
L 1759 2700 
L 1759 1216 
Q 1759 972 1856 886 
Q 1953 800 2241 800 
L 2816 800 
L 2816 0 
L 1856 0 
Q 1194 0 917 276 
Q 641 553 641 1216 
L 641 2700 
L 84 2700 
L 84 3500 
L 641 3500 
L 641 4494 
L 1759 4494 
z
" transform="scale(0.015625)"/>
     </defs>
     <use xlink:href="#DejaVuSans-Bold-44"/>
     <use xlink:href="#DejaVuSans-Bold-72" transform="translate(83.007812 0)"/>
     <use xlink:href="#DejaVuSans-Bold-6f" transform="translate(132.324219 0)"/>
     <use xlink:href="#DejaVuSans-Bold-70" transform="translate(201.025391 0)"/>
     <use xlink:href="#DejaVuSans-Bold-6f" transform="translate(272.607422 0)"/>
     <use xlink:href="#DejaVuSans-Bold-75" transform="translate(341.308594 0)"/>
     <use xlink:href="#DejaVuSans-Bold-74" transform="translate(412.5 0)"/>
    </g>
    <!-- corruption -->
    <g style="fill: #122033" transform="translate(160.323375 164.256817) scale(0.12 -0.12)">
     <defs>
      <path id="DejaVuSans-Bold-63" d="M 3366 3391 
L 3366 2478 
Q 3138 2634 2908 2709 
Q 2678 2784 2431 2784 
Q 1963 2784 1702 2511 
Q 1441 2238 1441 1747 
Q 1441 1256 1702 982 
Q 1963 709 2431 709 
Q 2694 709 2930 787 
Q 3166 866 3366 1019 
L 3366 103 
Q 3103 6 2833 -42 
Q 2563 -91 2291 -91 
Q 1344 -91 809 395 
Q 275 881 275 1747 
Q 275 2613 809 3098 
Q 1344 3584 2291 3584 
Q 2566 3584 2833 3536 
Q 3100 3488 3366 3391 
z
" transform="scale(0.015625)"/>
     </defs>
     <use xlink:href="#DejaVuSans-Bold-63"/>
     <use xlink:href="#DejaVuSans-Bold-6f" transform="translate(59.277344 0)"/>
     <use xlink:href="#DejaVuSans-Bold-72" transform="translate(127.978516 0)"/>
     <use xlink:href="#DejaVuSans-Bold-72" transform="translate(177.294922 0)"/>
     <use xlink:href="#DejaVuSans-Bold-75" transform="translate(226.611328 0)"/>
     <use xlink:href="#DejaVuSans-Bold-70" transform="translate(297.802734 0)"/>
     <use xlink:href="#DejaVuSans-Bold-74" transform="translate(369.384766 0)"/>
     <use xlink:href="#DejaVuSans-Bold-69" transform="translate(417.1875 0)"/>
     <use xlink:href="#DejaVuSans-Bold-6f" transform="translate(451.464844 0)"/>
     <use xlink:href="#DejaVuSans-Bold-6e" transform="translate(520.166016 0)"/>
    </g>
   </g>
   <g id="text_5">
    <!-- Encoder -->
    <g style="fill: #122033" transform="translate(302.630812 157.53813) scale(0.12 -0.12)">
     <use xlink:href="#DejaVuSans-Bold-45"/>
     <use xlink:href="#DejaVuSans-Bold-6e" transform="translate(68.310547 0)"/>
     <use xlink:href="#DejaVuSans-Bold-63" transform="translate(139.501953 0)"/>
     <use xlink:href="#DejaVuSans-Bold-6f" transform="translate(198.779297 0)"/>
     <use xlink:href="#DejaVuSans-Bold-64" transform="translate(267.480469 0)"/>
     <use xlink:href="#DejaVuSans-Bold-65" transform="translate(339.0625 0)"/>
     <use xlink:href="#DejaVuSans-Bold-72" transform="translate(406.884766 0)"/>
    </g>
   </g>
   <g id="text_6">
    <!-- Latent z -->
    <g style="fill: #122033" transform="translate(429.418312 157.53813) scale(0.12 -0.12)">
     <defs>
      <path id="DejaVuSans-Bold-4c" d="M 588 4666 
L 1791 4666 
L 1791 909 
L 3903 909 
L 3903 0 
L 588 0 
L 588 4666 
z
" transform="scale(0.015625)"/>
      <path id="DejaVuSans-Bold-61" d="M 2106 1575 
Q 1756 1575 1579 1456 
Q 1403 1338 1403 1106 
Q 1403 894 1545 773 
Q 1688 653 1941 653 
Q 2256 653 2472 879 
Q 2688 1106 2688 1447 
L 2688 1575 
L 2106 1575 
z
M 3816 1997 
L 3816 0 
L 2688 0 
L 2688 519 
Q 2463 200 2181 54 
Q 1900 -91 1497 -91 
Q 953 -91 614 226 
Q 275 544 275 1050 
Q 275 1666 698 1953 
Q 1122 2241 2028 2241 
L 2688 2241 
L 2688 2328 
Q 2688 2594 2478 2717 
Q 2269 2841 1825 2841 
Q 1466 2841 1156 2769 
Q 847 2697 581 2553 
L 581 3406 
Q 941 3494 1303 3539 
Q 1666 3584 2028 3584 
Q 2975 3584 3395 3211 
Q 3816 2838 3816 1997 
z
" transform="scale(0.015625)"/>
      <path id="DejaVuSans-Bold-7a" d="M 366 3500 
L 3419 3500 
L 3419 2719 
L 1575 800 
L 3419 800 
L 3419 0 
L 288 0 
L 288 781 
L 2131 2700 
L 366 2700 
L 366 3500 
z
" transform="scale(0.015625)"/>
     </defs>
     <use xlink:href="#DejaVuSans-Bold-4c"/>
     <use xlink:href="#DejaVuSans-Bold-61" transform="translate(63.720703 0)"/>
     <use xlink:href="#DejaVuSans-Bold-74" transform="translate(131.201172 0)"/>
     <use xlink:href="#DejaVuSans-Bold-65" transform="translate(179.003906 0)"/>
     <use xlink:href="#DejaVuSans-Bold-6e" transform="translate(246.826172 0)"/>
     <use xlink:href="#DejaVuSans-Bold-74" transform="translate(318.017578 0)"/>
     <use xlink:href="#DejaVuSans-Bold-20" transform="translate(365.820312 0)"/>
     <use xlink:href="#DejaVuSans-Bold-7a" transform="translate(400.634766 0)"/>
    </g>
   </g>
   <g id="text_7">
    <!-- Classifier -->
    <g style="fill: #122033" transform="translate(559.743562 106.134803) scale(0.12 -0.12)">
     <defs>
      <path id="DejaVuSans-Bold-43" d="M 4288 256 
Q 3956 84 3597 -3 
Q 3238 -91 2847 -91 
Q 1681 -91 1000 561 
Q 319 1213 319 2328 
Q 319 3447 1000 4098 
Q 1681 4750 2847 4750 
Q 3238 4750 3597 4662 
Q 3956 4575 4288 4403 
L 4288 3438 
Q 3953 3666 3628 3772 
Q 3303 3878 2944 3878 
Q 2300 3878 1931 3465 
Q 1563 3053 1563 2328 
Q 1563 1606 1931 1193 
Q 2300 781 2944 781 
Q 3303 781 3628 887 
Q 3953 994 4288 1222 
L 4288 256 
z
" transform="scale(0.015625)"/>
      <path id="DejaVuSans-Bold-66" d="M 2841 4863 
L 2841 4128 
L 2222 4128 
Q 1984 4128 1890 4042 
Q 1797 3956 1797 3744 
L 1797 3500 
L 2753 3500 
L 2753 2700 
L 1797 2700 
L 1797 0 
L 678 0 
L 678 2700 
L 122 2700 
L 122 3500 
L 678 3500 
L 678 3744 
Q 678 4316 997 4589 
Q 1316 4863 1984 4863 
L 2841 4863 
z
" transform="scale(0.015625)"/>
     </defs>
     <use xlink:href="#DejaVuSans-Bold-43"/>
     <use xlink:href="#DejaVuSans-Bold-6c" transform="translate(73.388672 0)"/>
     <use xlink:href="#DejaVuSans-Bold-61" transform="translate(107.666016 0)"/>
     <use xlink:href="#DejaVuSans-Bold-73" transform="translate(175.146484 0)"/>
     <use xlink:href="#DejaVuSans-Bold-73" transform="translate(234.667969 0)"/>
     <use xlink:href="#DejaVuSans-Bold-69" transform="translate(294.189453 0)"/>
     <use xlink:href="#DejaVuSans-Bold-66" transform="translate(328.466797 0)"/>
     <use xlink:href="#DejaVuSans-Bold-69" transform="translate(371.972656 0)"/>
     <use xlink:href="#DejaVuSans-Bold-65" transform="translate(406.25 0)"/>
     <use xlink:href="#DejaVuSans-Bold-72" transform="translate(474.072266 0)"/>
    </g>
    <!-- head -->
    <g style="fill: #122033" transform="translate(574.462312 119.572178) scale(0.12 -0.12)">
     <defs>
      <path id="DejaVuSans-Bold-68" d="M 4056 2131 
L 4056 0 
L 2931 0 
L 2931 347 
L 2931 1625 
Q 2931 2084 2911 2256 
Q 2891 2428 2841 2509 
Q 2775 2619 2662 2680 
Q 2550 2741 2406 2741 
Q 2056 2741 1856 2470 
Q 1656 2200 1656 1722 
L 1656 0 
L 538 0 
L 538 4863 
L 1656 4863 
L 1656 2988 
Q 1909 3294 2193 3439 
Q 2478 3584 2822 3584 
Q 3428 3584 3742 3212 
Q 4056 2841 4056 2131 
z
" transform="scale(0.015625)"/>
     </defs>
     <use xlink:href="#DejaVuSans-Bold-68"/>
     <use xlink:href="#DejaVuSans-Bold-65" transform="translate(71.191406 0)"/>
     <use xlink:href="#DejaVuSans-Bold-61" transform="translate(139.013672 0)"/>
     <use xlink:href="#DejaVuSans-Bold-64" transform="translate(206.494141 0)"/>
    </g>
   </g>
   <g id="text_8">
    <!-- Decoder -->
    <g style="fill: #122033" transform="translate(563.094187 210.87141) scale(0.12 -0.12)">
     <use xlink:href="#DejaVuSans-Bold-44"/>
     <use xlink:href="#DejaVuSans-Bold-65" transform="translate(83.007812 0)"/>
     <use xlink:href="#DejaVuSans-Bold-63" transform="translate(150.830078 0)"/>
     <use xlink:href="#DejaVuSans-Bold-6f" transform="translate(210.107422 0)"/>
     <use xlink:href="#DejaVuSans-Bold-64" transform="translate(278.808594 0)"/>
     <use xlink:href="#DejaVuSans-Bold-65" transform="translate(350.390625 0)"/>
     <use xlink:href="#DejaVuSans-Bold-72" transform="translate(418.212891 0)"/>
    </g>
   </g>
   <g id="text_9">
    <!-- Cell type -->
    <g style="fill: #122033" transform="translate(635.743984 107.860196) scale(0.11 -0.11)">
     <defs>
      <path id="DejaVuSans-43" d="M 4122 4306 
L 4122 3641 
Q 3803 3938 3442 4084 
Q 3081 4231 2675 4231 
Q 1875 4231 1450 3742 
Q 1025 3253 1025 2328 
Q 1025 1406 1450 917 
Q 1875 428 2675 428 
Q 3081 428 3442 575 
Q 3803 722 4122 1019 
L 4122 359 
Q 3791 134 3420 21 
Q 3050 -91 2638 -91 
Q 1578 -91 968 557 
Q 359 1206 359 2328 
Q 359 3453 968 4101 
Q 1578 4750 2638 4750 
Q 3056 4750 3426 4639 
Q 3797 4528 4122 4306 
z
" transform="scale(0.015625)"/>
      <path id="DejaVuSans-79" d="M 2059 -325 
Q 1816 -950 1584 -1140 
Q 1353 -1331 966 -1331 
L 506 -1331 
L 506 -850 
L 844 -850 
Q 1081 -850 1212 -737 
Q 1344 -625 1503 -206 
L 1606 56 
L 191 3500 
L 800 3500 
L 1894 763 
L 2988 3500 
L 3597 3500 
L 2059 -325 
z
" transform="scale(0.015625)"/>
     </defs>
     <use xlink:href="#DejaVuSans-43"/>
     <use xlink:href="#DejaVuSans-65" transform="translate(69.824219 0)"/>
     <use xlink:href="#DejaVuSans-6c" transform="translate(131.347656 0)"/>
     <use xlink:href="#DejaVuSans-6c" transform="translate(159.130859 0)"/>
     <use xlink:href="#DejaVuSans-20" transform="translate(186.914062 0)"/>
     <use xlink:href="#DejaVuSans-74" transform="translate(218.701172 0)"/>
     <use xlink:href="#DejaVuSans-79" transform="translate(257.910156 0)"/>
     <use xlink:href="#DejaVuSans-70" transform="translate(317.089844 0)"/>
     <use xlink:href="#DejaVuSans-65" transform="translate(380.566406 0)"/>
    </g>
    <!-- prediction -->
    <g style="fill: #122033" transform="translate(632.468047 120.177789) scale(0.11 -0.11)">
     <use xlink:href="#DejaVuSans-70"/>
     <use xlink:href="#DejaVuSans-72" transform="translate(63.476562 0)"/>
     <use xlink:href="#DejaVuSans-65" transform="translate(102.339844 0)"/>
     <use xlink:href="#DejaVuSans-64" transform="translate(163.863281 0)"/>
     <use xlink:href="#DejaVuSans-69" transform="translate(227.339844 0)"/>
     <use xlink:href="#DejaVuSans-63" transform="translate(255.123047 0)"/>
     <use xlink:href="#DejaVuSans-74" transform="translate(310.103516 0)"/>
     <use xlink:href="#DejaVuSans-69" transform="translate(349.3125 0)"/>
     <use xlink:href="#DejaVuSans-6f" transform="translate(377.095703 0)"/>
     <use xlink:href="#DejaVuSans-6e" transform="translate(438.277344 0)"/>
    </g>
   </g>
   <g id="text_10">
    <!-- Input -->
    <g style="fill: #122033" transform="translate(645.818438 205.878116) scale(0.11 -0.11)">
     <defs>
      <path id="DejaVuSans-49" d="M 628 4666 
L 1259 4666 
L 1259 0 
L 628 0 
L 628 4666 
z
" transform="scale(0.015625)"/>
     </defs>
     <use xlink:href="#DejaVuSans-49"/>
     <use xlink:href="#DejaVuSans-6e" transform="translate(29.492188 0)"/>
     <use xlink:href="#DejaVuSans-70" transform="translate(92.871094 0)"/>
     <use xlink:href="#DejaVuSans-75" transform="translate(156.347656 0)"/>
     <use xlink:href="#DejaVuSans-74" transform="translate(219.726562 0)"/>
    </g>
    <!-- reconstruction -->
    <g style="fill: #122033" transform="translate(620.33625 218.195709) scale(0.11 -0.11)">
     <use xlink:href="#DejaVuSans-72"/>
     <use xlink:href="#DejaVuSans-65" transform="translate(38.863281 0)"/>
     <use xlink:href="#DejaVuSans-63" transform="translate(100.386719 0)"/>
     <use xlink:href="#DejaVuSans-6f" transform="translate(155.367188 0)"/>
     <use xlink:href="#DejaVuSans-6e" transform="translate(216.548828 0)"/>
     <use xlink:href="#DejaVuSans-73" transform="translate(279.927734 0)"/>
     <use xlink:href="#DejaVuSans-74" transform="translate(332.027344 0)"/>
     <use xlink:href="#DejaVuSans-72" transform="translate(371.236328 0)"/>
     <use xlink:href="#DejaVuSans-75" transform="translate(412.349609 0)"/>
     <use xlink:href="#DejaVuSans-63" transform="translate(475.728516 0)"/>
     <use xlink:href="#DejaVuSans-74" transform="translate(530.708984 0)"/>
     <use xlink:href="#DejaVuSans-69" transform="translate(569.917969 0)"/>
     <use xlink:href="#DejaVuSans-6f" transform="translate(597.701172 0)"/>
     <use xlink:href="#DejaVuSans-6e" transform="translate(658.882812 0)"/>
    </g>
   </g>
   <g id="text_11">
    <!-- Loss -->
    <g style="fill: #122033" transform="translate(36.216 258.01056) scale(0.13 -0.13)">
     <use xlink:href="#DejaVuSans-Bold-4c"/>
     <use xlink:href="#DejaVuSans-Bold-6f" transform="translate(63.720703 0)"/>
     <use xlink:href="#DejaVuSans-Bold-73" transform="translate(132.421875 0)"/>
     <use xlink:href="#DejaVuSans-Bold-73" transform="translate(191.943359 0)"/>
    </g>
   </g>
   <g id="text_12">
    <!-- = reconstruction loss  +  lambda * classification loss -->
    <g style="fill: #122033" transform="translate(86.994 258.01056) scale(0.13 -0.13)">
     <defs>
      <path id="DejaVuSans-3d" d="M 678 2906 
L 4684 2906 
L 4684 2381 
L 678 2381 
L 678 2906 
z
M 678 1631 
L 4684 1631 
L 4684 1100 
L 678 1100 
L 678 1631 
z
" transform="scale(0.015625)"/>
      <path id="DejaVuSans-2b" d="M 2944 4013 
L 2944 2272 
L 4684 2272 
L 4684 1741 
L 2944 1741 
L 2944 0 
L 2419 0 
L 2419 1741 
L 678 1741 
L 678 2272 
L 2419 2272 
L 2419 4013 
L 2944 4013 
z
" transform="scale(0.015625)"/>
      <path id="DejaVuSans-6d" d="M 3328 2828 
Q 3544 3216 3844 3400 
Q 4144 3584 4550 3584 
Q 5097 3584 5394 3201 
Q 5691 2819 5691 2113 
L 5691 0 
L 5113 0 
L 5113 2094 
Q 5113 2597 4934 2840 
Q 4756 3084 4391 3084 
Q 3944 3084 3684 2787 
Q 3425 2491 3425 1978 
L 3425 0 
L 2847 0 
L 2847 2094 
Q 2847 2600 2669 2842 
Q 2491 3084 2119 3084 
Q 1678 3084 1418 2786 
Q 1159 2488 1159 1978 
L 1159 0 
L 581 0 
L 581 3500 
L 1159 3500 
L 1159 2956 
Q 1356 3278 1631 3431 
Q 1906 3584 2284 3584 
Q 2666 3584 2933 3390 
Q 3200 3197 3328 2828 
z
" transform="scale(0.015625)"/>
      <path id="DejaVuSans-62" d="M 3116 1747 
Q 3116 2381 2855 2742 
Q 2594 3103 2138 3103 
Q 1681 3103 1420 2742 
Q 1159 2381 1159 1747 
Q 1159 1113 1420 752 
Q 1681 391 2138 391 
Q 2594 391 2855 752 
Q 3116 1113 3116 1747 
z
M 1159 2969 
Q 1341 3281 1617 3432 
Q 1894 3584 2278 3584 
Q 2916 3584 3314 3078 
Q 3713 2572 3713 1747 
Q 3713 922 3314 415 
Q 2916 -91 2278 -91 
Q 1894 -91 1617 61 
Q 1341 213 1159 525 
L 1159 0 
L 581 0 
L 581 4863 
L 1159 4863 
L 1159 2969 
z
" transform="scale(0.015625)"/>
      <path id="DejaVuSans-2a" d="M 3009 3897 
L 1888 3291 
L 3009 2681 
L 2828 2375 
L 1778 3009 
L 1778 1831 
L 1422 1831 
L 1422 3009 
L 372 2375 
L 191 2681 
L 1313 3291 
L 191 3897 
L 372 4206 
L 1422 3572 
L 1422 4750 
L 1778 4750 
L 1778 3572 
L 2828 4206 
L 3009 3897 
z
" transform="scale(0.015625)"/>
     </defs>
     <use xlink:href="#DejaVuSans-3d"/>
     <use xlink:href="#DejaVuSans-20" transform="translate(83.789062 0)"/>
     <use xlink:href="#DejaVuSans-72" transform="translate(115.576172 0)"/>
     <use xlink:href="#DejaVuSans-65" transform="translate(154.439453 0)"/>
     <use xlink:href="#DejaVuSans-63" transform="translate(215.962891 0)"/>
     <use xlink:href="#DejaVuSans-6f" transform="translate(270.943359 0)"/>
     <use xlink:href="#DejaVuSans-6e" transform="translate(332.125 0)"/>
     <use xlink:href="#DejaVuSans-73" transform="translate(395.503906 0)"/>
     <use xlink:href="#DejaVuSans-74" transform="translate(447.603516 0)"/>
     <use xlink:href="#DejaVuSans-72" transform="translate(486.8125 0)"/>
     <use xlink:href="#DejaVuSans-75" transform="translate(527.925781 0)"/>
     <use xlink:href="#DejaVuSans-63" transform="translate(591.304688 0)"/>
     <use xlink:href="#DejaVuSans-74" transform="translate(646.285156 0)"/>
     <use xlink:href="#DejaVuSans-69" transform="translate(685.494141 0)"/>
     <use xlink:href="#DejaVuSans-6f" transform="translate(713.277344 0)"/>
     <use xlink:href="#DejaVuSans-6e" transform="translate(774.458984 0)"/>
     <use xlink:href="#DejaVuSans-20" transform="translate(837.837891 0)"/>
     <use xlink:href="#DejaVuSans-6c" transform="translate(869.625 0)"/>
     <use xlink:href="#DejaVuSans-6f" transform="translate(897.408203 0)"/>
     <use xlink:href="#DejaVuSans-73" transform="translate(958.589844 0)"/>
     <use xlink:href="#DejaVuSans-73" transform="translate(1010.689453 0)"/>
     <use xlink:href="#DejaVuSans-20" transform="translate(1062.789062 0)"/>
     <use xlink:href="#DejaVuSans-20" transform="translate(1094.576172 0)"/>
     <use xlink:href="#DejaVuSans-2b" transform="translate(1126.363281 0)"/>
     <use xlink:href="#DejaVuSans-20" transform="translate(1210.152344 0)"/>
     <use xlink:href="#DejaVuSans-20" transform="translate(1241.939453 0)"/>
     <use xlink:href="#DejaVuSans-6c" transform="translate(1273.726562 0)"/>
     <use xlink:href="#DejaVuSans-61" transform="translate(1301.509766 0)"/>
     <use xlink:href="#DejaVuSans-6d" transform="translate(1362.789062 0)"/>
     <use xlink:href="#DejaVuSans-62" transform="translate(1460.201172 0)"/>
     <use xlink:href="#DejaVuSans-64" transform="translate(1523.677734 0)"/>
     <use xlink:href="#DejaVuSans-61" transform="translate(1587.154297 0)"/>
     <use xlink:href="#DejaVuSans-20" transform="translate(1648.433594 0)"/>
     <use xlink:href="#DejaVuSans-2a" transform="translate(1680.220703 0)"/>
     <use xlink:href="#DejaVuSans-20" transform="translate(1730.220703 0)"/>
     <use xlink:href="#DejaVuSans-63" transform="translate(1762.007812 0)"/>
     <use xlink:href="#DejaVuSans-6c" transform="translate(1816.988281 0)"/>
     <use xlink:href="#DejaVuSans-61" transform="translate(1844.771484 0)"/>
     <use xlink:href="#DejaVuSans-73" transform="translate(1906.050781 0)"/>
     <use xlink:href="#DejaVuSans-73" transform="translate(1958.150391 0)"/>
     <use xlink:href="#DejaVuSans-69" transform="translate(2010.25 0)"/>
     <use xlink:href="#DejaVuSans-66" transform="translate(2038.033203 0)"/>
     <use xlink:href="#DejaVuSans-69" transform="translate(2073.238281 0)"/>
     <use xlink:href="#DejaVuSans-63" transform="translate(2101.021484 0)"/>
     <use xlink:href="#DejaVuSans-61" transform="translate(2156.001953 0)"/>
     <use xlink:href="#DejaVuSans-74" transform="translate(2217.28125 0)"/>
     <use xlink:href="#DejaVuSans-69" transform="translate(2256.490234 0)"/>
     <use xlink:href="#DejaVuSans-6f" transform="translate(2284.273438 0)"/>
     <use xlink:href="#DejaVuSans-6e" transform="translate(2345.455078 0)"/>
     <use xlink:href="#DejaVuSans-20" transform="translate(2408.833984 0)"/>
     <use xlink:href="#DejaVuSans-6c" transform="translate(2440.621094 0)"/>
     <use xlink:href="#DejaVuSans-6f" transform="translate(2468.404297 0)"/>
     <use xlink:href="#DejaVuSans-73" transform="translate(2529.585938 0)"/>
     <use xlink:href="#DejaVuSans-73" transform="translate(2581.685547 0)"/>
    </g>
   </g>
   <g id="text_13">
    <!-- best lambda = 0.5 -->
    <g style="fill: #159a9c" transform="translate(420.678 258.01056) scale(0.12 -0.12)">
     <defs>
      <path id="DejaVuSans-Bold-62" d="M 2400 722 
Q 2759 722 2948 984 
Q 3138 1247 3138 1747 
Q 3138 2247 2948 2509 
Q 2759 2772 2400 2772 
Q 2041 2772 1848 2508 
Q 1656 2244 1656 1747 
Q 1656 1250 1848 986 
Q 2041 722 2400 722 
z
M 1656 2988 
Q 1888 3294 2169 3439 
Q 2450 3584 2816 3584 
Q 3463 3584 3878 3070 
Q 4294 2556 4294 1747 
Q 4294 938 3878 423 
Q 3463 -91 2816 -91 
Q 2450 -91 2169 54 
Q 1888 200 1656 506 
L 1656 0 
L 538 0 
L 538 4863 
L 1656 4863 
L 1656 2988 
z
" transform="scale(0.015625)"/>
      <path id="DejaVuSans-Bold-6d" d="M 3781 2919 
Q 3994 3244 4286 3414 
Q 4578 3584 4928 3584 
Q 5531 3584 5847 3212 
Q 6163 2841 6163 2131 
L 6163 0 
L 5038 0 
L 5038 1825 
Q 5041 1866 5042 1909 
Q 5044 1953 5044 2034 
Q 5044 2406 4934 2573 
Q 4825 2741 4581 2741 
Q 4263 2741 4089 2478 
Q 3916 2216 3909 1719 
L 3909 0 
L 2784 0 
L 2784 1825 
Q 2784 2406 2684 2573 
Q 2584 2741 2328 2741 
Q 2006 2741 1831 2477 
Q 1656 2213 1656 1722 
L 1656 0 
L 531 0 
L 531 3500 
L 1656 3500 
L 1656 2988 
Q 1863 3284 2130 3434 
Q 2397 3584 2719 3584 
Q 3081 3584 3359 3409 
Q 3638 3234 3781 2919 
z
" transform="scale(0.015625)"/>
      <path id="DejaVuSans-Bold-3d" d="M 678 3084 
L 4684 3084 
L 4684 2350 
L 678 2350 
L 678 3084 
z
M 678 1663 
L 4684 1663 
L 4684 922 
L 678 922 
L 678 1663 
z
" transform="scale(0.015625)"/>
      <path id="DejaVuSans-Bold-30" d="M 2944 2338 
Q 2944 3213 2780 3570 
Q 2616 3928 2228 3928 
Q 1841 3928 1675 3570 
Q 1509 3213 1509 2338 
Q 1509 1453 1675 1090 
Q 1841 728 2228 728 
Q 2613 728 2778 1090 
Q 2944 1453 2944 2338 
z
M 4147 2328 
Q 4147 1169 3647 539 
Q 3147 -91 2228 -91 
Q 1306 -91 806 539 
Q 306 1169 306 2328 
Q 306 3491 806 4120 
Q 1306 4750 2228 4750 
Q 3147 4750 3647 4120 
Q 4147 3491 4147 2328 
z
" transform="scale(0.015625)"/>
      <path id="DejaVuSans-Bold-2e" d="M 653 1209 
L 1778 1209 
L 1778 0 
L 653 0 
L 653 1209 
z
" transform="scale(0.015625)"/>
      <path id="DejaVuSans-Bold-35" d="M 678 4666 
L 3669 4666 
L 3669 3781 
L 1638 3781 
L 1638 3059 
Q 1775 3097 1914 3117 
Q 2053 3138 2203 3138 
Q 3056 3138 3531 2711 
Q 4006 2284 4006 1522 
Q 4006 766 3489 337 
Q 2972 -91 2053 -91 
Q 1656 -91 1267 -14 
Q 878 63 494 219 
L 494 1166 
Q 875 947 1217 837 
Q 1559 728 1863 728 
Q 2300 728 2551 942 
Q 2803 1156 2803 1522 
Q 2803 1891 2551 2103 
Q 2300 2316 1863 2316 
Q 1603 2316 1309 2248 
Q 1016 2181 678 2041 
L 678 4666 
z
" transform="scale(0.015625)"/>
     </defs>
     <use xlink:href="#DejaVuSans-Bold-62"/>
     <use xlink:href="#DejaVuSans-Bold-65" transform="translate(71.582031 0)"/>
     <use xlink:href="#DejaVuSans-Bold-73" transform="translate(139.404297 0)"/>
     <use xlink:href="#DejaVuSans-Bold-74" transform="translate(198.925781 0)"/>
     <use xlink:href="#DejaVuSans-Bold-20" transform="translate(246.728516 0)"/>
     <use xlink:href="#DejaVuSans-Bold-6c" transform="translate(281.542969 0)"/>
     <use xlink:href="#DejaVuSans-Bold-61" transform="translate(315.820312 0)"/>
     <use xlink:href="#DejaVuSans-Bold-6d" transform="translate(383.300781 0)"/>
     <use xlink:href="#DejaVuSans-Bold-62" transform="translate(487.5 0)"/>
     <use xlink:href="#DejaVuSans-Bold-64" transform="translate(559.082031 0)"/>
     <use xlink:href="#DejaVuSans-Bold-61" transform="translate(630.664062 0)"/>
     <use xlink:href="#DejaVuSans-Bold-20" transform="translate(698.144531 0)"/>
     <use xlink:href="#DejaVuSans-Bold-3d" transform="translate(732.958984 0)"/>
     <use xlink:href="#DejaVuSans-Bold-20" transform="translate(816.748047 0)"/>
     <use xlink:href="#DejaVuSans-Bold-30" transform="translate(851.5625 0)"/>
     <use xlink:href="#DejaVuSans-Bold-2e" transform="translate(921.142578 0)"/>
     <use xlink:href="#DejaVuSans-Bold-35" transform="translate(959.130859 0)"/>
    </g>
   </g>
  </g>
 </g>
 <defs>
  <clipPath id="pa7c9bffdab">
   <rect x="7.2" y="7.2" width="725.4" height="288.288"/>
  </clipPath>
 </defs>
</svg>
